<svg width="659" height="105" viewBox="0 0 659 105" fill="none" xmlns="http://www.w3.org/2000/svg">
<path fill-rule="evenodd" clip-rule="evenodd" d="M54.4443 62.0523L53.9307 62.0619C53.163 62.0728 52.8125 62.1646 52.5833 62.9645L52.4748 63.51C52.3902 63.9136 52.307 64.3174 52.225 64.7215L52.1017 65.3436L51.9769 65.9346C51.8849 66.4651 51.8848 66.4651 51.7147 66.8974C50.1155 67.4299 48.5734 68.2765 47.2087 69.2598C46.9247 69.4757 46.6349 69.6844 46.3374 69.8814C45.7631 70.139 45.5578 70.0858 44.9456 69.8892L44.7546 69.8078C43.7026 69.3593 42.7181 68.9394 41.5576 68.8867C41.3584 69.0857 41.3584 69.0857 40.9585 69.719C40.629 70.2506 40.2969 70.7802 39.9606 71.3075C39.6587 71.78 39.3592 72.2538 39.0618 72.7291C38.9066 72.9779 38.751 73.2264 38.5951 73.4747C38.3563 73.8459 38.1178 74.217 37.8845 74.5916L37.663 74.9489C37.1781 75.7158 36.9711 76.0823 37.0032 76.9953C37.2216 77.8099 37.2216 77.8099 38.371 78.6347C38.7156 78.8743 39.053 79.1243 39.3847 79.3814C40.4391 80.3415 40.6628 81.1445 40.7703 82.5435L40.7858 83.3221C40.8154 84.1237 40.8019 84.8908 40.7252 85.6908C40.3696 87.2191 39.2867 88.066 38.0793 88.9732C37.6709 89.2432 37.6709 89.2432 37.3752 89.5762C37.2767 90.2655 37.3233 90.6613 37.6241 91.2906L37.9727 91.8103L38.3593 92.3943L38.7693 92.9954C39.1606 93.5848 39.5534 94.1725 39.9536 94.7558L40.3626 95.3454L40.795 95.973L41.2184 96.5739C41.6001 97.1182 41.6001 97.1182 41.9559 97.5337C42.2248 97.6163 42.406 97.672 42.5899 97.6838C42.9691 97.708 43.3601 97.5457 44.5574 97.0488C44.9472 96.8691 45.3416 96.6989 45.7399 96.539L45.8559 96.5087C46.412 96.3626 46.7779 96.2666 47.3316 96.5258L47.4073 96.5862C47.9421 97.0135 48.4628 97.4295 49.1069 97.6832C49.9772 97.9863 50.8249 98.2904 51.5958 98.8032C52.4538 100.365 52.4538 100.365 52.5705 102.212C52.6044 102.791 52.6836 103.063 53.0055 103.552C53.6342 103.988 54.0404 103.994 54.7916 104L55.2996 103.991C55.6564 103.991 56.0132 103.99 56.3701 103.989C56.9313 103.981 57.4923 103.974 58.0536 103.973C58.4205 103.973 58.7875 103.972 59.1544 103.97L59.6811 103.966L60.1891 103.965L60.6644 103.957C61.3021 103.95 61.722 103.835 62.2702 103.502C62.771 102.533 62.771 102.533 63.1998 99.2666L63.266 98.7273C63.7186 98.7273 63.7186 98.7273 64.8219 98.1507L65.2825 97.9067L65.4561 97.8174C66.1944 97.4382 66.8961 97.0777 67.516 96.5102C67.8473 96.1529 67.8473 96.1529 68.2014 95.8676C68.8195 95.8642 69.1352 95.8625 69.4359 95.9287C69.7498 95.9979 70.0474 96.1411 70.6555 96.4337C71.5107 96.8227 72.2643 97.1618 73.224 97.1358C73.7359 96.6649 73.7359 96.6649 73.9741 96.3278L74.2197 95.9422C74.5144 95.5027 74.8042 95.0615 75.0866 94.6142L75.3898 94.1269C75.5998 93.7905 75.8096 93.4541 76.0192 93.1174L76.052 93.0643L76.0531 93.0626C76.3203 92.6301 76.5876 92.1974 76.8585 91.7671L77.0819 91.4125L77.4685 90.7822C77.4922 90.744 77.5153 90.7069 77.5379 90.6706C77.811 90.2324 78.0052 89.9206 77.9999 89.3765C77.7064 88.7797 77.3068 88.4231 76.8088 87.9847C76.2619 87.6618 75.728 87.3406 75.229 86.9466C74.714 86.1114 74.4522 85.6869 74.3167 85.2253C74.1767 84.7484 74.1713 84.2318 74.1604 83.1815L74.1575 82.775C74.1402 81.9978 74.1555 81.254 74.2356 80.4807C74.4981 79.5463 74.9766 79.1193 75.7494 78.5615C76.6526 77.9266 77.4828 77.1352 77.7548 76.0485C77.6055 75.4517 77.6055 75.4517 77.1963 74.7857C76.871 74.2787 76.5564 73.7693 76.2518 73.2495C75.989 72.7955 75.7247 72.3428 75.4575 71.8914C75.3183 71.6568 75.1796 71.422 75.0413 71.187C74.8373 70.8293 74.6333 70.4721 74.4225 70.1184L74.2213 69.7827C73.8581 69.16 73.8581 69.1599 73.4231 68.6878C72.6183 68.4826 72.1612 68.451 71.3615 68.68C70.5619 69.0251 69.7593 69.357 68.9498 69.6778C68.3833 69.7299 68.3833 69.7299 67.786 69.2504C67.1667 68.7661 66.5453 68.397 65.8434 68.0444L65.4318 67.8423C64.7158 67.4787 64.0503 67.1421 63.2675 66.9502L62.8676 66.8974C62.8676 66.2395 62.8067 65.6627 62.6844 65.0195L62.6062 64.622L62.5845 64.5007C62.427 63.6211 62.282 62.8107 61.6727 62.1229C61.2101 62.0154 60.7845 62.0034 60.3095 62L59.755 62.0118C59.3685 62.0127 58.982 62.0142 58.5954 62.016C57.9852 62.0261 57.3753 62.0359 56.7649 62.0382C56.3666 62.039 55.9683 62.0407 55.5701 62.0436L55.0001 62.0491L54.4443 62.0523ZM67.6474 81.4198C67.2056 78.6979 65.847 76.6214 63.7692 74.8486C59.5642 71.5767 54.278 72.1543 50.3205 75.4517C48.3507 77.2796 47.361 79.8719 47.2428 82.5096C47.1852 85.3919 48.0731 87.856 50.0965 89.9655C52.3559 92.0541 55.0164 93.0802 58.1002 93.0055C60.8584 92.782 63.1353 91.6843 65.0381 89.6694C67.1047 87.2444 67.8948 84.5923 67.6474 81.4198Z" fill="#9C9EA1"/>
<path fill-rule="evenodd" clip-rule="evenodd" d="M76.6151 32.0411L76.2142 32.0487C75.6151 32.0572 75.3415 32.1294 75.1626 32.7579L75.0779 33.1864C75.0118 33.5035 74.9469 33.8208 74.883 34.1383L74.7867 34.6271L74.6893 35.0914C74.6507 35.3151 74.6329 35.4188 74.6041 35.5193C74.5792 35.6061 74.5462 35.6906 74.4846 35.8479C73.2365 36.2663 72.0329 36.9315 70.9678 37.7041C70.7461 37.8738 70.5199 38.0378 70.2877 38.1926C69.8395 38.395 69.6792 38.3532 69.2014 38.1987L69.0523 38.1347C68.2313 37.7823 67.4629 37.4524 66.5571 37.411C66.5144 37.454 66.4834 37.4852 66.4544 37.5181C66.3781 37.605 66.3158 37.7042 66.0896 38.0649C65.8324 38.4826 65.5732 38.8987 65.3107 39.313C65.0751 39.6843 64.8414 40.0566 64.6092 40.43C64.4881 40.6255 64.3666 40.8208 64.2449 41.0159C64.0585 41.3075 63.8724 41.5991 63.6903 41.8934L63.5175 42.1741C63.139 42.7767 62.9774 43.0647 63.0025 43.782C63.0684 44.0294 63.1088 44.1812 63.1854 44.3117C63.307 44.5189 63.5197 44.6725 64.07 45.0701C64.339 45.2584 64.6024 45.4548 64.8612 45.6569C65.6842 46.4112 65.8588 47.0421 65.9427 48.1413L65.9548 48.7531C65.9779 49.3829 65.9673 49.9856 65.9075 50.6142C65.6299 51.815 64.7848 52.4804 63.8424 53.1932C63.5236 53.4054 63.5236 53.4054 63.2928 53.667C63.216 54.2086 63.2523 54.5196 63.4871 55.014L63.7592 55.4224L64.0609 55.8813L64.3809 56.3535C64.6863 56.8166 64.9929 57.2784 65.3052 57.7367L65.6245 58.1999L65.9619 58.693L66.2924 59.1652C66.4559 59.3998 66.5297 59.5057 66.6088 59.6074C66.6739 59.6911 66.7427 59.772 66.868 59.9193C67.078 59.9843 67.2194 60.028 67.363 60.0373C67.6589 60.0563 67.9642 59.9287 68.8985 59.5383C69.2027 59.3972 69.5105 59.2634 69.8214 59.1378L69.9119 59.1139C70.3459 58.9992 70.6315 58.9237 71.0637 59.1274L71.1228 59.1749C71.5402 59.5106 71.9466 59.8375 72.4493 60.0368C73.1286 60.275 73.7901 60.5139 74.3918 60.9168C75.0615 62.1441 75.0615 62.1441 75.1526 63.595C75.179 64.0498 75.2408 64.2638 75.4921 64.6478C75.9828 64.9904 76.2999 64.9954 76.8861 65L77.2826 64.9932C77.5611 64.9929 77.8396 64.9923 78.1181 64.9914C78.5561 64.9854 78.994 64.9798 79.4321 64.9791C79.7185 64.9791 80.0049 64.9784 80.2912 64.9768L80.7023 64.9737L81.0988 64.9726L81.4698 64.9666C81.9675 64.961 82.2952 64.8704 82.7231 64.6085C83.114 63.8475 83.114 63.8475 83.4487 61.2809L83.5003 60.8572C83.8535 60.8572 83.8535 60.8571 84.7147 60.4041L85.0741 60.2124L85.2097 60.1422C85.7859 59.8443 86.3336 59.561 86.8174 59.1152C86.9511 58.97 87.0158 58.8997 87.0852 58.8349C87.1499 58.7744 87.219 58.7184 87.3523 58.6102C87.8344 58.6076 88.0807 58.6062 88.3153 58.6582C88.5604 58.7124 88.7927 58.825 89.2677 59.0551C89.9352 59.3607 90.5233 59.6271 91.2724 59.6067C91.5224 59.3751 91.616 59.2885 91.6966 59.1911C91.7447 59.1329 91.7883 59.0709 91.8578 58.9718L92.0496 58.6688C92.2795 58.3236 92.5057 57.9769 92.7262 57.6254L92.9628 57.2425C93.1267 56.9783 93.2905 56.7139 93.454 56.4494L93.4799 56.4072C93.6887 56.067 93.8974 55.7268 94.1091 55.3884L94.2834 55.1098L94.5852 54.6146L94.6393 54.5269C94.8524 54.1826 95.0041 53.9376 94.9999 53.5101C94.7709 53.0412 94.459 52.761 94.0703 52.4165C93.6434 52.1629 93.2267 51.9105 92.8373 51.6009C92.4358 50.9454 92.2315 50.6119 92.1256 50.2497C92.016 49.8747 92.0118 49.4688 92.0033 48.6426L92.001 48.3232C91.9874 47.7125 91.9994 47.1282 92.062 46.5205C92.2668 45.7864 92.6403 45.4509 93.2435 45.0126C93.9483 44.5138 94.5964 43.892 94.8087 43.0381C94.7571 42.8308 94.7284 42.7151 94.6847 42.6054C94.6297 42.4669 94.5508 42.3378 94.3727 42.0459C94.1188 41.6476 93.8733 41.2473 93.6356 40.8389C93.4304 40.4822 93.2242 40.1265 93.0156 39.7718C92.907 39.5875 92.7987 39.403 92.6908 39.2183C92.5316 38.9373 92.3723 38.6567 92.2078 38.3787L92.0508 38.115C91.7673 37.6257 91.7673 37.6257 91.4278 37.2547C90.7996 37.0934 90.4429 37.0687 89.8187 37.2486C89.1947 37.5197 88.5682 37.7805 87.9364 38.0326C87.7442 38.0504 87.6356 38.0604 87.5359 38.0352C87.4062 38.0024 87.2916 37.9098 87.0281 37.6968C86.5447 37.3163 86.0597 37.0262 85.5119 36.7492L85.1907 36.5904C84.6318 36.3047 84.1124 36.0402 83.5015 35.8895L83.1894 35.8479C83.1894 35.331 83.1419 34.8779 83.0464 34.3725L82.9854 34.0602L82.9684 33.9649C82.8455 33.2737 82.7323 32.637 82.2567 32.0966C81.8957 32.0121 81.5635 32.0027 81.1928 32L80.76 32.0093C80.4583 32.01 80.1566 32.0111 79.855 32.0126C79.3787 32.0205 78.9026 32.0282 78.4263 32.03C78.1154 32.0306 77.8046 32.032 77.4937 32.0343L77.0488 32.0386L76.6151 32.0411ZM86.9199 47.2584C86.5751 45.1198 85.5148 43.4882 83.8931 42.0954C80.6111 39.5245 76.4853 39.9784 73.3965 42.5692C71.8591 44.0054 71.0866 46.0422 70.9944 48.1147C70.9494 50.3794 71.6425 52.3155 73.2216 53.9729C74.9851 55.6139 77.0616 56.4201 79.4684 56.3615C81.6212 56.1859 83.3983 55.3234 84.8834 53.7403C86.4964 51.8349 87.113 49.7511 86.9199 47.2584Z" fill="#9C9EA1"/>
<path d="M75.5177 28.0605L76.0188 28.0511L76.561 28.0479L77.1171 28.0426C77.5057 28.0398 77.8943 28.0381 78.2829 28.0373C78.8783 28.035 79.4734 28.0255 80.0687 28.0157C80.4458 28.0138 80.8229 28.0124 81.2 28.0115L81.741 28C82.2043 28.0033 82.6196 28.0151 83.0709 28.12C83.6654 28.7914 83.8069 29.5825 83.9605 30.4412L83.9817 30.5596L84.058 30.9476C84.1773 31.5755 84.2367 32.1385 84.2367 32.7808L84.6269 32.8324C85.3906 33.0197 86.0398 33.3483 86.7384 33.7032L87.1399 33.9005C87.8247 34.2446 88.4309 34.605 89.0351 35.0778C89.3645 35.3424 89.5078 35.4575 89.6699 35.4983C89.7945 35.5296 89.9303 35.5171 90.1705 35.495C90.9603 35.1818 91.7434 34.8578 92.5234 34.521C93.3036 34.2974 93.7495 34.3282 94.5347 34.5286C94.9591 34.9895 94.9591 34.9895 95.3135 35.5974L95.5098 35.9251C95.7154 36.2704 95.9144 36.619 96.1134 36.9682C96.2484 37.1977 96.3837 37.4269 96.5195 37.6559C96.7802 38.0965 97.038 38.5384 97.2944 38.9816C97.5916 39.489 97.8985 39.9864 98.2159 40.4813C98.4386 40.8439 98.5371 41.0043 98.6059 41.1764C98.6604 41.3127 98.6964 41.4565 98.7608 41.714C98.4955 42.7749 97.6854 43.5474 96.8043 44.1671C96.0504 44.7117 95.5835 45.1286 95.3275 46.0406C95.2493 46.7956 95.2343 47.5216 95.2512 48.2804L95.2541 48.6772C95.2647 49.7036 95.2699 50.2079 95.407 50.6739C95.5394 51.1239 95.7947 51.5383 96.2966 52.3527C96.7834 52.7373 97.3043 53.0508 97.8379 53.366C98.3237 53.794 98.7136 54.1421 98.9999 54.7247C99.0051 55.2558 98.8156 55.5602 98.5492 55.988L98.5168 56.0401L98.4815 56.097L98.1043 56.7122L97.8864 57.0584C97.6233 57.4764 97.3639 57.8966 97.1044 58.3168L97.0999 58.3241L97.0675 58.3765C96.8631 58.7051 96.6584 59.0336 96.4535 59.3619L96.1577 59.8376C95.8821 60.2743 95.5994 60.705 95.312 61.134L95.0723 61.5105C94.9854 61.6336 94.9309 61.7106 94.8707 61.7829C94.77 61.9038 94.653 62.0115 94.3404 62.2992C93.4042 62.3246 92.669 61.9936 91.8347 61.6139C91.2409 61.328 90.9505 61.1882 90.6441 61.1207C90.3509 61.0562 90.0429 61.0579 89.4404 61.0612C89.2737 61.1956 89.1874 61.2651 89.1065 61.3403C89.02 61.4206 88.9394 61.5076 88.7733 61.6868L88.7717 61.6886C88.167 62.2425 87.4823 62.5944 86.7621 62.9646L86.5926 63.0517L86.1434 63.29C85.8863 63.4244 85.6898 63.5271 85.5349 63.605L85.7012 63.9391C86.0765 64.6936 86.4521 65.4479 86.8279 66.2021C88.0681 68.6899 89.3076 71.1781 90.5464 73.6667C90.7541 74.0842 90.9614 74.502 91.1688 74.9198C92.3098 77.2191 93.4508 79.5185 94.6563 81.7847C94.911 82.2602 95.1647 82.7363 95.4178 83.2127C95.8375 84.0033 96.258 84.7934 96.679 85.5833C97.897 87.8626 99.0933 90.1517 100.286 92.4444L106.058 104H136C136 103.696 136 103.52 135.969 103.35C135.926 103.115 135.824 102.891 135.582 102.359L134.997 101.199C134.667 100.543 134.338 99.8872 134.007 99.2325C133.772 98.7684 133.537 98.3041 133.303 97.8395C132.837 96.9128 132.371 95.986 131.904 95.0598C131.298 93.8595 130.695 92.6579 130.098 91.4528C128.147 87.5076 126.099 83.6143 124.031 79.7294C122.009 75.9322 120.058 72.1023 118.143 68.25C116.655 65.2548 115.16 62.2653 113.589 59.3125C112.175 56.6567 110.824 53.9725 109.485 51.2778C108.117 48.5228 106.735 45.7791 105.292 43.0625C104.184 40.9779 103.105 38.8818 102.054 36.7681C100.818 34.277 99.5823 31.7888 98.2793 29.3322C96.6289 26.2293 95.041 23.0989 93.4775 19.9514C90.4743 13.9055 90.4743 13.9055 83.3316 0H53.3899L54.1408 1.50342C54.3842 1.99054 54.6276 2.4776 54.8711 2.96462C55.6528 4.5284 56.4328 6.09298 57.2107 7.65863C59.6107 12.4882 62.0184 17.3102 64.5546 22.0701L64.9229 22.775C65.18 23.2575 65.4477 23.7343 65.7237 24.2061L66.9312 26.8899L68.3012 29.9348L68.6764 30.6719C69.2578 31.8253 69.8477 32.974 70.4435 34.1195C71.3703 33.577 72.3515 33.1154 73.3558 32.7808C73.4327 32.5853 73.474 32.4803 73.5051 32.3725C73.5411 32.2476 73.5634 32.1188 73.6116 31.8409L73.7334 31.264L73.8537 30.6567C73.9336 30.2622 74.0148 29.868 74.0973 29.4741L74.2033 28.9416C74.4269 28.1607 74.7688 28.0711 75.5177 28.0605Z" fill="#E6E6E6"/>
<path d="M35.6325 85.4755L35.6095 84.3261C35.4495 82.2609 35.1167 81.0755 33.548 79.6583C33.0545 79.2787 32.5524 78.9097 32.0398 78.5559C30.3297 77.3384 30.3297 77.3384 30.0048 76.136C29.9569 74.7881 30.265 74.2471 30.9865 73.115L31.3159 72.5877C31.6631 72.0346 32.0178 71.4868 32.3731 70.9389C32.6051 70.5723 32.8366 70.2054 33.0676 69.8382C33.5101 69.1366 33.9556 68.4371 34.4048 67.7397C34.9052 66.9612 35.3993 66.1795 35.8895 65.3948C36.3204 64.7176 36.4392 64.5309 36.5845 64.3679C36.6399 64.3058 36.6991 64.2471 36.7808 64.1662C38.5074 64.2439 39.9721 64.8637 41.5373 65.5259L41.8215 65.646C42.7323 65.9362 43.0378 66.0148 43.8922 65.6345C44.3348 65.3437 44.766 65.0355 45.1886 64.7168C46.4338 63.8266 47.7783 63.0123 49.1808 62.3343C49.9964 60.7384 50.8098 59.1413 51.6226 57.5439C51.963 56.8748 52.3037 56.2059 52.6449 55.5373C53.9967 52.8879 55.3566 50.243 56.7406 47.61C56.8701 47.3636 56.9998 47.1173 57.1298 46.8711L57.354 46.446C57.6711 45.8443 57.9867 45.242 58.3004 44.6388C58.9945 43.3038 59.6788 41.964 60.3464 40.6145C61.1045 39.0728 61.8591 37.5295 62.6457 36.0024L62.9389 35.4133C63.1556 34.9784 63.3728 34.5438 63.5908 34.1095L64.0206 33.2561L64.7984 31.7101C65.3853 30.5507 65.9558 29.3953 66.4528 28.1935L66.7374 27.4444L66.9312 26.8899L65.7237 24.2061C65.4477 23.7343 65.18 23.2575 64.9229 22.775L64.5546 22.0701C62.0184 17.3102 59.6107 12.4882 57.2107 7.65863C56.4328 6.09298 55.6528 4.5284 54.8711 2.96462C54.6276 2.4776 54.3842 1.99054 54.1408 1.50342L53.3899 0H52.6684C52.3375 0.713476 52.0061 1.42674 51.6729 2.13916L51.248 3.04688C50.3176 5.05712 49.3384 7.03464 48.299 8.99039L48.2945 8.9987C48.13 9.31843 47.9642 9.63754 47.797 9.95595C47.3639 10.7644 46.9365 11.5752 46.5138 12.3882C45.5963 14.1595 44.695 15.9387 43.8071 17.7268L43.764 17.8136L43.3644 18.6207C41.5115 22.3627 39.6587 26.1049 37.6976 29.7917C36.52 32.0019 35.3828 34.2283 34.2706 36.4722C33.2717 38.4875 32.2596 40.4929 31.2057 42.4799C29.5931 45.5126 28.0379 48.571 26.5089 51.6465L26.061 52.5485C24.7633 55.1624 23.4659 57.7758 22.0975 60.3537C20.4543 63.4331 18.881 66.5435 17.3268 69.6686C15.2156 73.9145 13.0899 78.1518 10.9188 82.3673L10.5292 83.1233C9.33828 85.4346 8.14541 87.7448 6.93954 90.0484L6.34259 91.1848C5.97225 91.8907 5.60167 92.5965 5.23077 93.3021L5.22962 93.3042L5.22907 93.3053L5.07668 93.592C4.73271 94.2393 4.46657 94.7419 4.20609 95.2474C3.41818 96.7765 2.68194 98.3323 0 104H27.7772L28.8594 101.833C29.5859 100.364 30.3214 98.8997 31.0646 97.4397C32.0192 95.5644 32.9864 93.6959 33.9633 91.8317C34.4244 90.9517 34.8877 90.0728 35.3528 89.1944L35.5501 88.8222L35.5577 88.8079C35.6582 87.6858 35.6745 86.6039 35.6325 85.4755Z" fill="#9C9EA1"/>
<path d="M149.14 76V8.8H164.692V63.328H198.388V76H149.14Z" fill="#9C9EA1"/>
<path d="M206.118 76V8.8H256.902V21.28H221.574V63.52H258.15V76H206.118ZM220.422 47.968V35.872H252.774V47.968H220.422Z" fill="#9C9EA1"/>
<path d="M269.564 76V8.8H298.268C307.612 8.8 314.876 10.976 320.06 15.328C325.244 19.616 327.836 25.568 327.836 33.184C327.836 38.176 326.652 42.496 324.284 46.144C321.916 49.728 318.556 52.48 314.204 54.4C309.852 56.32 304.668 57.28 298.652 57.28H278.204L285.116 50.464V76H269.564ZM312.284 76L295.484 51.616H312.092L329.084 76H312.284ZM285.116 52.192L278.204 44.896H297.788C302.588 44.896 306.172 43.872 308.54 41.824C310.908 39.712 312.092 36.832 312.092 33.184C312.092 29.472 310.908 26.592 308.54 24.544C306.172 22.496 302.588 21.472 297.788 21.472H278.204L285.116 14.08V52.192Z" fill="#9C9EA1"/>
<path d="M352.18 76V21.472H330.676V8.8H389.236V21.472H367.732V76H352.18Z" fill="#9C9EA1"/>
<path d="M396.644 76V8.8H425.348C434.692 8.8 441.956 10.976 447.14 15.328C452.324 19.616 454.916 25.568 454.916 33.184C454.916 38.176 453.732 42.496 451.364 46.144C448.996 49.728 445.636 52.48 441.284 54.4C436.932 56.32 431.748 57.28 425.732 57.28H405.284L412.196 50.464V76H396.644ZM439.364 76L422.564 51.616H439.172L456.164 76H439.364ZM412.196 52.192L405.284 44.896H424.868C429.668 44.896 433.252 43.872 435.62 41.824C437.988 39.712 439.172 36.832 439.172 33.184C439.172 29.472 437.988 26.592 435.62 24.544C433.252 22.496 429.668 21.472 424.868 21.472H405.284L412.196 14.08V52.192Z" fill="#E6E6E6"/>
<path d="M457.446 76L487.398 8.8H502.758L532.806 76H516.486L491.91 16.672H498.054L473.382 76H457.446ZM472.422 61.6L476.55 49.792H511.11L515.334 61.6H472.422Z" fill="#E6E6E6"/>
<path d="M570.04 77.152C564.856 77.152 560.024 76.32 555.544 74.656C551.128 72.928 547.288 70.496 544.024 67.36C540.76 64.224 538.2 60.544 536.344 56.32C534.552 52.096 533.656 47.456 533.656 42.4C533.656 37.344 534.552 32.704 536.344 28.48C538.2 24.256 540.76 20.576 544.024 17.44C547.352 14.304 551.225 11.904 555.641 10.24C560.057 8.512 564.888 7.648 570.136 7.648C575.96 7.648 581.208 8.672 585.88 10.72C590.616 12.704 594.584 15.648 597.784 19.552L587.8 28.768C585.496 26.144 582.936 24.192 580.12 22.912C577.304 21.568 574.232 20.896 570.904 20.896C567.768 20.896 564.888 21.408 562.264 22.432C559.64 23.456 557.368 24.928 555.448 26.848C553.528 28.768 552.024 31.04 550.936 33.664C549.912 36.288 549.4 39.2 549.4 42.4C549.4 45.6 549.912 48.512 550.936 51.136C552.024 53.76 553.528 56.032 555.448 57.952C557.368 59.872 559.64 61.344 562.264 62.368C564.888 63.392 567.768 63.904 570.904 63.904C574.232 63.904 577.304 63.264 580.12 61.984C582.936 60.64 585.496 58.624 587.8 55.936L597.784 65.152C594.584 69.056 590.616 72.032 585.88 74.08C581.208 76.128 575.928 77.152 570.04 77.152Z" fill="#E6E6E6"/>
<path d="M606.389 76V8.8H657.173V21.28H621.845V63.52H658.421V76H606.389ZM620.693 47.968V35.872H653.045V47.968H620.693Z" fill="#E6E6E6"/>
<path d="M149.774 104V87.2H152.174V104H149.774Z" fill="#E6E6E6"/>
<path d="M157.684 104V87.2H159.652L170.764 101H169.732V87.2H172.132V104H170.164L159.052 90.2H160.084V104H157.684Z" fill="#E6E6E6"/>
<path d="M177.64 104V87.2H184.72C186.512 87.2 188.088 87.552 189.448 88.256C190.824 88.96 191.888 89.944 192.64 91.208C193.408 92.472 193.792 93.936 193.792 95.6C193.792 97.264 193.408 98.728 192.64 99.992C191.888 101.256 190.824 102.24 189.448 102.944C188.088 103.648 186.512 104 184.72 104H177.64ZM180.04 101.912H184.576C185.968 101.912 187.168 101.648 188.176 101.12C189.2 100.592 189.992 99.856 190.552 98.912C191.112 97.952 191.392 96.848 191.392 95.6C191.392 94.336 191.112 93.232 190.552 92.288C189.992 91.344 189.2 90.608 188.176 90.08C187.168 89.552 185.968 89.288 184.576 89.288H180.04V101.912Z" fill="#E6E6E6"/>
<path d="M204.908 104.192C202.7 104.192 200.964 103.56 199.7 102.296C198.436 101.032 197.804 99.184 197.804 96.752V87.2H200.204V96.656C200.204 98.528 200.612 99.896 201.428 100.76C202.26 101.624 203.428 102.056 204.932 102.056C206.452 102.056 207.62 101.624 208.436 100.76C209.268 99.896 209.684 98.528 209.684 96.656V87.2H212.012V96.752C212.012 99.184 211.38 101.032 210.116 102.296C208.868 103.56 207.132 104.192 204.908 104.192Z" fill="#E6E6E6"/>
<path d="M222.309 104.192C221.029 104.192 219.805 104 218.637 103.616C217.469 103.216 216.549 102.704 215.877 102.08L216.765 100.208C217.405 100.768 218.221 101.232 219.213 101.6C220.205 101.968 221.237 102.152 222.309 102.152C223.285 102.152 224.077 102.04 224.685 101.816C225.293 101.592 225.741 101.288 226.029 100.904C226.317 100.504 226.461 100.056 226.461 99.56C226.461 98.984 226.269 98.52 225.885 98.168C225.517 97.816 225.029 97.536 224.421 97.328C223.829 97.104 223.173 96.912 222.453 96.752C221.733 96.592 221.005 96.408 220.269 96.2C219.549 95.976 218.885 95.696 218.277 95.36C217.685 95.024 217.205 94.576 216.837 94.016C216.469 93.44 216.285 92.704 216.285 91.808C216.285 90.944 216.509 90.152 216.957 89.432C217.421 88.696 218.125 88.112 219.069 87.68C220.029 87.232 221.245 87.008 222.717 87.008C223.693 87.008 224.661 87.136 225.621 87.392C226.581 87.648 227.413 88.016 228.117 88.496L227.325 90.416C226.605 89.936 225.845 89.592 225.045 89.384C224.245 89.16 223.469 89.048 222.717 89.048C221.773 89.048 220.997 89.168 220.389 89.408C219.781 89.648 219.333 89.968 219.045 90.368C218.773 90.768 218.637 91.216 218.637 91.712C218.637 92.304 218.821 92.776 219.189 93.128C219.573 93.48 220.061 93.76 220.653 93.968C221.261 94.176 221.925 94.368 222.645 94.544C223.365 94.704 224.085 94.888 224.805 95.096C225.541 95.304 226.205 95.576 226.797 95.912C227.405 96.248 227.893 96.696 228.261 97.256C228.629 97.816 228.813 98.536 228.813 99.416C228.813 100.264 228.581 101.056 228.117 101.792C227.653 102.512 226.933 103.096 225.957 103.544C224.997 103.976 223.781 104.192 222.309 104.192Z" fill="#E6E6E6"/>
<path d="M235.901 104V89.288H230.141V87.2H244.037V89.288H238.277V104H235.901Z" fill="#E6E6E6"/>
<path d="M247.131 104V87.2H253.683C255.859 87.2 257.571 87.72 258.819 88.76C260.067 89.784 260.691 91.216 260.691 93.056C260.691 94.272 260.411 95.32 259.851 96.2C259.291 97.064 258.491 97.728 257.451 98.192C256.411 98.656 255.155 98.888 253.683 98.888H248.451L249.531 97.784V104H247.131ZM258.363 104L254.091 97.904H256.659L260.979 104H258.363ZM249.531 98.024L248.451 96.848H253.611C255.147 96.848 256.307 96.52 257.091 95.864C257.891 95.192 258.291 94.256 258.291 93.056C258.291 91.856 257.891 90.928 257.091 90.272C256.307 89.616 255.147 89.288 253.611 89.288H248.451L249.531 88.088V98.024Z" fill="#E6E6E6"/>
<path d="M265.048 104V87.2H267.448V104H265.048Z" fill="#E6E6E6"/>
<path d="M270.414 104L278.022 87.2H280.398L288.03 104H285.51L278.718 88.544H279.678L272.886 104H270.414ZM273.654 99.8L274.302 97.88H283.758L284.454 99.8H273.654Z" fill="#E6E6E6"/>
<path d="M291.016 104V87.2H293.416V101.912H302.512V104H291.016Z" fill="#E6E6E6"/>
<path d="M322.922 104V87.2H324.891L332.426 99.896H331.37L338.81 87.2H340.779L340.802 104H338.499L338.474 90.824H339.026L332.402 101.96H331.298L324.626 90.824H325.227V104H322.922Z" fill="#E6E6E6"/>
<path d="M353.908 104.192C352.628 104.192 351.436 103.976 350.332 103.544C349.244 103.112 348.3 102.512 347.5 101.744C346.7 100.96 346.076 100.048 345.628 99.008C345.18 97.968 344.956 96.832 344.956 95.6C344.956 94.368 345.18 93.232 345.628 92.192C346.076 91.152 346.7 90.248 347.5 89.48C348.3 88.696 349.244 88.088 350.332 87.656C351.42 87.224 352.612 87.008 353.908 87.008C355.188 87.008 356.364 87.224 357.436 87.656C358.524 88.072 359.468 88.672 360.268 89.456C361.084 90.224 361.708 91.128 362.14 92.168C362.588 93.208 362.812 94.352 362.812 95.6C362.812 96.848 362.588 97.992 362.14 99.032C361.708 100.072 361.084 100.984 360.268 101.768C359.468 102.536 358.524 103.136 357.436 103.568C356.364 103.984 355.188 104.192 353.908 104.192ZM353.908 102.056C354.836 102.056 355.692 101.896 356.476 101.576C357.276 101.256 357.964 100.808 358.54 100.232C359.132 99.64 359.588 98.952 359.908 98.168C360.244 97.384 360.412 96.528 360.412 95.6C360.412 94.672 360.244 93.816 359.908 93.032C359.588 92.248 359.132 91.568 358.54 90.992C357.964 90.4 357.276 89.944 356.476 89.624C355.692 89.304 354.836 89.144 353.908 89.144C352.964 89.144 352.092 89.304 351.292 89.624C350.508 89.944 349.82 90.4 349.228 90.992C348.636 91.568 348.172 92.248 347.836 93.032C347.516 93.816 347.356 94.672 347.356 95.6C347.356 96.528 347.516 97.384 347.836 98.168C348.172 98.952 348.636 99.64 349.228 100.232C349.82 100.808 350.508 101.256 351.292 101.576C352.092 101.896 352.964 102.056 353.908 102.056Z" fill="#E6E6E6"/>
<path d="M366.961 104V87.2H368.929L380.041 101H379.009V87.2H381.409V104H379.441L368.329 90.2H369.361V104H366.961Z" fill="#E6E6E6"/>
<path d="M386.917 104V87.2H389.317V104H386.917Z" fill="#E6E6E6"/>
<path d="M398.163 104V89.288H392.403V87.2H406.299V89.288H400.539V104H398.163Z" fill="#E6E6E6"/>
<path d="M416.742 104.192C415.462 104.192 414.27 103.976 413.166 103.544C412.078 103.112 411.134 102.512 410.334 101.744C409.534 100.96 408.91 100.048 408.462 99.008C408.014 97.968 407.79 96.832 407.79 95.6C407.79 94.368 408.014 93.232 408.462 92.192C408.91 91.152 409.534 90.248 410.334 89.48C411.134 88.696 412.078 88.088 413.166 87.656C414.254 87.224 415.446 87.008 416.742 87.008C418.022 87.008 419.198 87.224 420.27 87.656C421.358 88.072 422.302 88.672 423.102 89.456C423.918 90.224 424.542 91.128 424.974 92.168C425.422 93.208 425.646 94.352 425.646 95.6C425.646 96.848 425.422 97.992 424.974 99.032C424.542 100.072 423.918 100.984 423.102 101.768C422.302 102.536 421.358 103.136 420.27 103.568C419.198 103.984 418.022 104.192 416.742 104.192ZM416.742 102.056C417.67 102.056 418.526 101.896 419.31 101.576C420.11 101.256 420.798 100.808 421.374 100.232C421.966 99.64 422.422 98.952 422.742 98.168C423.078 97.384 423.246 96.528 423.246 95.6C423.246 94.672 423.078 93.816 422.742 93.032C422.422 92.248 421.966 91.568 421.374 90.992C420.798 90.4 420.11 89.944 419.31 89.624C418.526 89.304 417.67 89.144 416.742 89.144C415.798 89.144 414.926 89.304 414.126 89.624C413.342 89.944 412.654 90.4 412.062 90.992C411.47 91.568 411.006 92.248 410.67 93.032C410.35 93.816 410.19 94.672 410.19 95.6C410.19 96.528 410.35 97.384 410.67 98.168C411.006 98.952 411.47 99.64 412.062 100.232C412.654 100.808 413.342 101.256 414.126 101.576C414.926 101.896 415.798 102.056 416.742 102.056Z" fill="#E6E6E6"/>
<path d="M429.795 104V87.2H436.347C438.523 87.2 440.235 87.72 441.483 88.76C442.731 89.784 443.355 91.216 443.355 93.056C443.355 94.272 443.075 95.32 442.515 96.2C441.955 97.064 441.155 97.728 440.115 98.192C439.075 98.656 437.819 98.888 436.347 98.888H431.115L432.195 97.784V104H429.795ZM441.027 104L436.755 97.904H439.323L443.643 104H441.027ZM432.195 98.024L431.115 96.848H436.275C437.811 96.848 438.971 96.52 439.755 95.864C440.555 95.192 440.955 94.256 440.955 93.056C440.955 91.856 440.555 90.928 439.755 90.272C438.971 89.616 437.811 89.288 436.275 89.288H431.115L432.195 88.088V98.024Z" fill="#E6E6E6"/>
<path d="M447.712 104V87.2H450.112V104H447.712Z" fill="#E6E6E6"/>
<path d="M455.622 104V87.2H457.59L468.702 101H467.67V87.2H470.07V104H468.102L456.99 90.2H458.022V104H455.622Z" fill="#E6E6E6"/>
<path d="M483.162 104.192C481.866 104.192 480.674 103.984 479.586 103.568C478.498 103.136 477.554 102.536 476.754 101.768C475.954 100.984 475.33 100.072 474.882 99.032C474.434 97.992 474.21 96.848 474.21 95.6C474.21 94.352 474.434 93.208 474.882 92.168C475.33 91.128 475.954 90.224 476.754 89.456C477.57 88.672 478.522 88.072 479.61 87.656C480.698 87.224 481.898 87.008 483.21 87.008C484.538 87.008 485.754 87.224 486.858 87.656C487.962 88.088 488.898 88.736 489.666 89.6L488.178 91.088C487.49 90.416 486.738 89.928 485.922 89.624C485.122 89.304 484.25 89.144 483.306 89.144C482.346 89.144 481.45 89.304 480.618 89.624C479.802 89.944 479.09 90.392 478.482 90.968C477.89 91.544 477.426 92.232 477.09 93.032C476.77 93.816 476.61 94.672 476.61 95.6C476.61 96.512 476.77 97.368 477.09 98.168C477.426 98.952 477.89 99.64 478.482 100.232C479.09 100.808 479.802 101.256 480.618 101.576C481.434 101.896 482.322 102.056 483.282 102.056C484.178 102.056 485.034 101.92 485.85 101.648C486.682 101.36 487.45 100.888 488.154 100.232L489.522 102.056C488.69 102.76 487.714 103.296 486.594 103.664C485.49 104.016 484.346 104.192 483.162 104.192ZM489.522 102.056L487.218 101.744V95.504H489.522V102.056Z" fill="#E6E6E6"/>
<path d="M516.613 104.192C515.333 104.192 514.109 104 512.941 103.616C511.773 103.216 510.853 102.704 510.181 102.08L511.069 100.208C511.709 100.768 512.525 101.232 513.517 101.6C514.509 101.968 515.541 102.152 516.613 102.152C517.589 102.152 518.381 102.04 518.989 101.816C519.597 101.592 520.045 101.288 520.333 100.904C520.621 100.504 520.765 100.056 520.765 99.56C520.765 98.984 520.573 98.52 520.189 98.168C519.821 97.816 519.333 97.536 518.725 97.328C518.133 97.104 517.477 96.912 516.757 96.752C516.037 96.592 515.309 96.408 514.573 96.2C513.853 95.976 513.189 95.696 512.581 95.36C511.989 95.024 511.509 94.576 511.141 94.016C510.773 93.44 510.589 92.704 510.589 91.808C510.589 90.944 510.813 90.152 511.261 89.432C511.725 88.696 512.429 88.112 513.373 87.68C514.333 87.232 515.549 87.008 517.021 87.008C517.997 87.008 518.965 87.136 519.925 87.392C520.885 87.648 521.717 88.016 522.421 88.496L521.629 90.416C520.909 89.936 520.149 89.592 519.349 89.384C518.549 89.16 517.773 89.048 517.021 89.048C516.077 89.048 515.301 89.168 514.693 89.408C514.085 89.648 513.637 89.968 513.349 90.368C513.077 90.768 512.941 91.216 512.941 91.712C512.941 92.304 513.125 92.776 513.493 93.128C513.877 93.48 514.365 93.76 514.957 93.968C515.565 94.176 516.229 94.368 516.949 94.544C517.669 94.704 518.389 94.888 519.109 95.096C519.845 95.304 520.509 95.576 521.101 95.912C521.709 96.248 522.197 96.696 522.565 97.256C522.933 97.816 523.117 98.536 523.117 99.416C523.117 100.264 522.885 101.056 522.421 101.792C521.957 102.512 521.237 103.096 520.261 103.544C519.301 103.976 518.085 104.192 516.613 104.192Z" fill="#E6E6E6"/>
<path d="M534.687 104.192C533.407 104.192 532.215 103.976 531.111 103.544C530.023 103.112 529.079 102.512 528.279 101.744C527.479 100.96 526.855 100.048 526.407 99.008C525.959 97.968 525.735 96.832 525.735 95.6C525.735 94.368 525.959 93.232 526.407 92.192C526.855 91.152 527.479 90.248 528.279 89.48C529.079 88.696 530.023 88.088 531.111 87.656C532.199 87.224 533.391 87.008 534.687 87.008C535.967 87.008 537.143 87.224 538.215 87.656C539.303 88.072 540.247 88.672 541.047 89.456C541.863 90.224 542.487 91.128 542.919 92.168C543.367 93.208 543.591 94.352 543.591 95.6C543.591 96.848 543.367 97.992 542.919 99.032C542.487 100.072 541.863 100.984 541.047 101.768C540.247 102.536 539.303 103.136 538.215 103.568C537.143 103.984 535.967 104.192 534.687 104.192ZM534.687 102.056C535.615 102.056 536.471 101.896 537.255 101.576C538.055 101.256 538.743 100.808 539.319 100.232C539.911 99.64 540.367 98.952 540.687 98.168C541.023 97.384 541.191 96.528 541.191 95.6C541.191 94.672 541.023 93.816 540.687 93.032C540.367 92.248 539.911 91.568 539.319 90.992C538.743 90.4 538.055 89.944 537.255 89.624C536.471 89.304 535.615 89.144 534.687 89.144C533.743 89.144 532.871 89.304 532.071 89.624C531.287 89.944 530.599 90.4 530.007 90.992C529.415 91.568 528.951 92.248 528.615 93.032C528.295 93.816 528.135 94.672 528.135 95.6C528.135 96.528 528.295 97.384 528.615 98.168C528.951 98.952 529.415 99.64 530.007 100.232C530.599 100.808 531.287 101.256 532.071 101.576C532.871 101.896 533.743 102.056 534.687 102.056Z" fill="#E6E6E6"/>
<path d="M547.74 104V87.2H550.14V101.912H559.236V104H547.74Z" fill="#E6E6E6"/>
<path d="M569.148 104.192C566.94 104.192 565.204 103.56 563.94 102.296C562.676 101.032 562.044 99.184 562.044 96.752V87.2H564.444V96.656C564.444 98.528 564.852 99.896 565.668 100.76C566.5 101.624 567.668 102.056 569.172 102.056C570.692 102.056 571.86 101.624 572.676 100.76C573.508 99.896 573.924 98.528 573.924 96.656V87.2H576.252V96.752C576.252 99.184 575.62 101.032 574.356 102.296C573.108 103.56 571.372 104.192 569.148 104.192Z" fill="#E6E6E6"/>
<path d="M584.684 104V89.288H578.924V87.2H592.82V89.288H587.06V104H584.684Z" fill="#E6E6E6"/>
<path d="M595.914 104V87.2H598.314V104H595.914Z" fill="#E6E6E6"/>
<path d="M611.408 104.192C610.128 104.192 608.936 103.976 607.832 103.544C606.744 103.112 605.8 102.512 605 101.744C604.2 100.96 603.576 100.048 603.128 99.008C602.68 97.968 602.456 96.832 602.456 95.6C602.456 94.368 602.68 93.232 603.128 92.192C603.576 91.152 604.2 90.248 605 89.48C605.8 88.696 606.744 88.088 607.832 87.656C608.92 87.224 610.112 87.008 611.408 87.008C612.688 87.008 613.864 87.224 614.936 87.656C616.024 88.072 616.968 88.672 617.768 89.456C618.584 90.224 619.208 91.128 619.64 92.168C620.088 93.208 620.312 94.352 620.312 95.6C620.312 96.848 620.088 97.992 619.64 99.032C619.208 100.072 618.584 100.984 617.768 101.768C616.968 102.536 616.024 103.136 614.936 103.568C613.864 103.984 612.688 104.192 611.408 104.192ZM611.408 102.056C612.336 102.056 613.192 101.896 613.976 101.576C614.776 101.256 615.464 100.808 616.04 100.232C616.632 99.64 617.088 98.952 617.408 98.168C617.744 97.384 617.912 96.528 617.912 95.6C617.912 94.672 617.744 93.816 617.408 93.032C617.088 92.248 616.632 91.568 616.04 90.992C615.464 90.4 614.776 89.944 613.976 89.624C613.192 89.304 612.336 89.144 611.408 89.144C610.464 89.144 609.592 89.304 608.792 89.624C608.008 89.944 607.32 90.4 606.728 90.992C606.136 91.568 605.672 92.248 605.336 93.032C605.016 93.816 604.856 94.672 604.856 95.6C604.856 96.528 605.016 97.384 605.336 98.168C605.672 98.952 606.136 99.64 606.728 100.232C607.32 100.808 608.008 101.256 608.792 101.576C609.592 101.896 610.464 102.056 611.408 102.056Z" fill="#E6E6E6"/>
<path d="M624.46 104V87.2H626.428L637.54 101H636.508V87.2H638.908V104H636.94L625.828 90.2H626.86V104H624.46Z" fill="#E6E6E6"/>
<path d="M649.313 104.192C648.033 104.192 646.809 104 645.641 103.616C644.473 103.216 643.553 102.704 642.881 102.08L643.769 100.208C644.409 100.768 645.225 101.232 646.217 101.6C647.209 101.968 648.241 102.152 649.313 102.152C650.289 102.152 651.081 102.04 651.689 101.816C652.297 101.592 652.745 101.288 653.033 100.904C653.321 100.504 653.465 100.056 653.465 99.56C653.465 98.984 653.273 98.52 652.889 98.168C652.521 97.816 652.033 97.536 651.425 97.328C650.833 97.104 650.177 96.912 649.457 96.752C648.737 96.592 648.009 96.408 647.273 96.2C646.553 95.976 645.889 95.696 645.281 95.36C644.689 95.024 644.209 94.576 643.841 94.016C643.473 93.44 643.289 92.704 643.289 91.808C643.289 90.944 643.513 90.152 643.961 89.432C644.425 88.696 645.129 88.112 646.073 87.68C647.033 87.232 648.249 87.008 649.721 87.008C650.697 87.008 651.665 87.136 652.625 87.392C653.585 87.648 654.417 88.016 655.121 88.496L654.329 90.416C653.609 89.936 652.849 89.592 652.049 89.384C651.249 89.16 650.473 89.048 649.721 89.048C648.777 89.048 648.001 89.168 647.393 89.408C646.785 89.648 646.337 89.968 646.049 90.368C645.777 90.768 645.641 91.216 645.641 91.712C645.641 92.304 645.825 92.776 646.193 93.128C646.577 93.48 647.065 93.76 647.657 93.968C648.265 94.176 648.929 94.368 649.649 94.544C650.369 94.704 651.089 94.888 651.809 95.096C652.545 95.304 653.209 95.576 653.801 95.912C654.409 96.248 654.897 96.696 655.265 97.256C655.633 97.816 655.817 98.536 655.817 99.416C655.817 100.264 655.585 101.056 655.121 101.792C654.657 102.512 653.937 103.096 652.961 103.544C652.001 103.976 650.785 104.192 649.313 104.192Z" fill="#E6E6E6"/>
</svg>
